<svg width="16" height="21" viewBox="0 0 16 21" fill="none" xmlns="http://www.w3.org/2000/svg">
<path d="M13.5 7.33332H12.5833V5.49999C12.5833 2.96999 10.53 0.916656 7.99999 0.916656C5.46999 0.916656 3.41666 2.96999 3.41666 5.49999V7.33332H2.49999C1.49166 7.33332 0.666656 8.15832 0.666656 9.16666V18.3333C0.666656 19.3417 1.49166 20.1667 2.49999 20.1667H13.5C14.5083 20.1667 15.3333 19.3417 15.3333 18.3333V9.16666C15.3333 8.15832 14.5083 7.33332 13.5 7.33332ZM7.99999 15.5833C6.99166 15.5833 6.16666 14.7583 6.16666 13.75C6.16666 12.7417 6.99166 11.9167 7.99999 11.9167C9.00832 11.9167 9.83332 12.7417 9.83332 13.75C9.83332 14.7583 9.00832 15.5833 7.99999 15.5833ZM10.8417 7.33332H5.15832V5.49999C5.15832 3.93249 6.43249 2.65832 7.99999 2.65832C9.56749 2.65832 10.8417 3.93249 10.8417 5.49999V7.33332Z" fill="white" fill-opacity="0.5"/>
</svg>
