<svg width="22" height="19" viewBox="0 0 22 19" fill="none" xmlns="http://www.w3.org/2000/svg">
<path d="M11 4.41667C13.53 4.41667 15.5833 6.47 15.5833 9C15.5833 9.59583 15.4642 10.155 15.2533 10.6775L17.93 13.3542C19.3142 12.1992 20.405 10.705 21.0742 9C19.4883 4.97583 15.5742 2.125 10.9908 2.125C9.70751 2.125 8.47917 2.35417 7.34251 2.76667L9.32251 4.74667C9.84501 4.53583 10.4042 4.41667 11 4.41667ZM1.83334 1.91417L3.92334 4.00417L4.34501 4.42583C2.82334 5.60833 1.63167 7.185 0.916672 9C2.50251 13.0242 6.41667 15.875 11 15.875C12.4208 15.875 13.7775 15.6 15.015 15.105L15.4 15.49L18.0858 18.1667L19.25 17.0025L2.99751 0.75L1.83334 1.91417ZM6.90251 6.98333L8.32334 8.40417C8.27751 8.59667 8.25001 8.79833 8.25001 9C8.25001 10.5217 9.47834 11.75 11 11.75C11.2017 11.75 11.4033 11.7225 11.5958 11.6767L13.0167 13.0975C12.4025 13.4 11.7242 13.5833 11 13.5833C8.47001 13.5833 6.41667 11.53 6.41667 9C6.41667 8.27583 6.60001 7.5975 6.90251 6.98333ZM10.8533 6.26833L13.7408 9.15583L13.7592 9.00917C13.7592 7.4875 12.5308 6.25917 11.0092 6.25917L10.8533 6.26833Z" fill="white" fill-opacity="0.7"/>
</svg>
